<svg id="nova_Logo" data-name="nova Logo" xmlns="http://www.w3.org/2000/svg" viewBox="0 0 446.25488 224.57813"><defs><style>.cls-1{fill:#8a1913;}.cls-2{fill:#423f3f;}</style></defs><path class="cls-1" d="M10699.35526,583.18987h-122.5918a16.58077,16.58077,0,0,0-16.56152,16.5625V728.82268h134.47851a11.16623,11.16623,0,0,0,11.1543-11.15332v-128A6.48627,6.48627,0,0,0,10699.35526,583.18987Zm-137.15332,16.5625a14.57817,14.57817,0,0,1,14.56152-14.5625h22.31983a5.04556,5.04556,0,0,0-1.56446,3.78253c-.01562,7.47382-.04931,14.94764-.05029,22.42145q-.00805,53.25413-.00195,106.5083.00074,6.7749,4.63281,8.92053h-9.05371a4.69339,4.69339,0,0,0,1.48779-3.00683,26.024,26.024,0,0,0,.28955-3.82312q.05274-32.833.06543-65.66608.01392-31.15209.00293-62.30414V589.906c-2.123,1.94763-3.28076,3.78015-3.27636,6.4743q.09668,53.73514.03027,107.47052c-.00977,10.507-4.84766,17.97785-14.46826,22.291-.50537.22644-1.01416.44745-1.55616.68084h-13.41894Zm141.63281,117.917a9.16425,9.16425,0,0,1-9.1543,9.15332h-4.35058c-.37891-.14679-.751-.29254-1.11719-.44287-7.03076-2.88269-12.42578-7.42022-14.05273-15.16565a50.28924,50.28924,0,0,1-.67285-10.1773q-.074-40.43427.00781-80.86866.00073-.3196-.02442-.61969a1.58451,1.58451,0,0,0-3.15625.20258v3.3598q-.00145,47.72058.00245,95.441c.00048,1.54633.00146,3.09857.1289,4.63764a4.73147,4.73147,0,0,0,1.625,3.63311h-8.93213a8.31565,8.31565,0,0,0,4.50782-7.79681c-.13331-17.50659-.05176-35.01489-.05176-52.52252q0-26.42166,0-52.84332c-.00049-2.87159-1.604-4.77027-4.50342-4.7569a16.513,16.513,0,0,0-5.58057,1.06244c-7.26855,2.71344-14.47265,5.59839-21.72168,8.36346a4.32265,4.32265,0,0,0-2.78906,4.04505q.06738,50.05471.03516,100.10949c0,1.38782.02734,2.77631-.00928,4.16315-.002.06256.00146.11835.00293.176h-2.61524a1.59665,1.59665,0,0,0,.12256-.56414c.00244-.087.00391-.173.00391-.259q.00586-64.46548.022-128.931a1.86643,1.86643,0,0,0-1.29687-2.04272c-7.64893-3.24506-15.25684-6.58691-22.90772-9.82855l-.019-.00745h92.01709a4.48492,4.48492,0,0,1,4.47949,4.47949Z" transform="translate(-10409.89043 -583.18987)"/><path class="cls-1" d="M10426.659,750.23479a110.85141,110.85141,0,0,0-11.34863,15.98438,37.06846,37.06846,0,0,0,5.293.2998l.16992-5.04394a18.631,18.631,0,0,1,5.46192-1.53809l.16992.12793v6.4961c.59277,0,2.15918-.12793,3.09082-.1709l.042.08593a10.15442,10.15442,0,0,1-1.18555,3.376,7.02721,7.02721,0,0,1-1.94726.4707v5.08594c0,.6836-.50879.85449-1.35547.98242a35.42105,35.42105,0,0,1-4.78418.29981c.169-2.26563.2959-5.51367.2959-6.3252a74.10484,74.10484,0,0,1-9.18848-.59863,5.38442,5.38442,0,0,1-1.48242-2.77832,113.73713,113.73713,0,0,1,10.58594-15.25781,20.74909,20.74909,0,0,1,6.05566-1.83789Z" transform="translate(-10409.89043 -583.18987)"/><path class="cls-1" d="M10445.45684,758.227c0,4.31641-3.30274,6.4541-7.28321,6.4541-3.6416,0-6.85937-2.05176-6.85937-6.19726,0-4.23145,3.30273-6.49707,7.32519-6.49707C10442.74688,751.98675,10445.45684,754.7221,10445.45684,758.227Zm-9.23047,0c0,2.30762,1.10058,3.54785,2.20117,3.54785,1.35547,0,2.11719-1.28222,2.11719-3.37695,0-1.53809-.42285-3.50488-2.15918-3.50488C10437.03008,754.893,10436.22637,756.17522,10436.22637,758.227Z" transform="translate(-10409.89043 -583.18987)"/><path class="cls-1" d="M10464.16973,775.40862c0,.85449-.2959,1.02539-1.0166,1.11133-1.22754.12793-4.02247.1709-4.9961.1709.085-1.71.12695-4.23145.12695-7.82129V754.5512c0-2.09375,0-3.12012-.085-4.31641a66.049,66.049,0,0,1,7.707-.72656c7.24024,0,10.459,2.47852,10.459,7.77832,0,3.93262-3.30274,5.85547-4.9541,6.668.93066.85449,2.20117,3.12012,3.55664,5.55566a39.00291,39.00291,0,0,0,4.27637,6.625v.1709a11.30615,11.30615,0,0,1-3.85352.46973,4.3759,4.3759,0,0,1-4.02246-1.79492,44.91783,44.91783,0,0,1-3.68359-6.7959c-1.14356-2.30762-1.94825-2.47852-2.92188-2.47852h-.59277Zm0-13.16406a10.73427,10.73427,0,0,0,3.81054-.29883,4.33708,4.33708,0,0,0,2.24512-4.14648c0-3.24805-1.94824-4.78614-4.48926-4.78614a9.25847,9.25847,0,0,0-1.5664.12793Z" transform="translate(-10409.89043 -583.18987)"/><path class="cls-1" d="M10482.1209,755.7055c0-2.05176,0-3.50489-.12695-5.38575a27.84131,27.84131,0,0,1,5.50488-.59765h10.07715a6.2359,6.2359,0,0,1-1.39746,3.76074,17.55881,17.55881,0,0,1-4.2334.25684h-3.76856v6.88086h8.9336c-.38086,3.334-1.3545,4.01757-2.87891,4.01757h-6.05469v7.77832a19.206,19.206,0,0,0,3.38672.25684c1.65137,0,4.91211,0,7.15625-.1709l.085.085a5.58059,5.58059,0,0,1-2.41406,3.88965,48.13732,48.13732,0,0,1-6.05469.21387,46.85548,46.85548,0,0,1-7.53711-.42774l-.67773-.85449Z" transform="translate(-10409.89043 -583.18987)"/><path class="cls-1" d="M10518.45,767.03167c0-1.45313-.12695-2.26563-.16992-3.248a52.1,52.1,0,0,1,5.209-.6416c.71973,0,1.01563.25684,1.01563,1.1543v9.53125a17.80592,17.80592,0,0,1-3.55664,2.35058,21.55425,21.55425,0,0,1-5.84375.89746c-6.90137,0-14.60742-3.03515-14.60742-13.80566,0-8.88965,6.77441-14.18945,15.11621-14.18945,4.48828,0,7.749,1.36816,8.8916,2.52148.043,1.92383-1.3125,3.291-2.83692,2.99219a15.7076,15.7076,0,0,0-6.09765-1.28223c-4.82715,0-8.6377,3.03418-8.6377,9.61621,0,6.9668,4.57324,10.38575,9.18848,10.38575a7.86915,7.86915,0,0,0,2.3291-.3418Z" transform="translate(-10409.89043 -583.18987)"/><path class="cls-1" d="M10529.6248,755.3637c0-2.86328-.042-4.61621-.12695-5.42773.84668-.12891,4.27637-.34278,5.251-.34278.80371,0,.93164.42774.93164,2.35156v19.14747c0,2.99121.084,4.40136.12695,5.25683a37.3949,37.3949,0,0,1-5.166.3418c-.71973,0-1.01661-.12793-1.01661-.85449Z" transform="translate(-10409.89043 -583.18987)"/><path class="cls-1" d="M10556.13066,751.21819c-.043,1.19629-.76269,3.20508-2.45605,3.07715a11.18712,11.18712,0,0,0-4.15039-1.02637c-2.20117,0-3.51367,1.02637-3.51367,2.52149,0,1.75293,1.35449,2.73535,5.37695,5.04394,3.51465,2.00879,5.84375,3.63282,5.84375,7.82129,0,5.51367-4.78516,8.41992-9.82324,8.41992a11.29566,11.29566,0,0,1-6.35156-1.667c-.84766-.55566-1.14356-1.02539-1.14356-1.624a5.90518,5.90518,0,0,1,1.18555-3.07715,13.10409,13.10409,0,0,0,6.18164,2.00879c2.28711,0,3.98047-.89746,3.98047-2.86426,0-1.53808-.71973-2.52148-5.03907-4.915-4.9541-2.64941-5.88476-5.42773-5.88476-8.07715,0-3.03515,2.11621-7.77929,9.35742-7.77929C10552.1502,749.0805,10555.0291,750.10686,10556.13066,751.21819Z" transform="translate(-10409.89043 -583.18987)"/><path class="cls-1" d="M10566.92559,753.73968h-7.36719c-.7627,0-1.10059-.3418-.7627-1.45313a6.9299,6.9299,0,0,1,1.48243-2.77832,34.89016,34.89016,0,0,0,6.01269.21387h15.45508c-.21192,2.73535-1.48145,3.80371-2.45606,4.01758h-6.30859v17.39453c0,2.94922.085,4.35937.12695,5.21484a33.93751,33.93751,0,0,1-5.166.3418c-.67774,0-1.0166-.12793-1.0166-.76953Z" transform="translate(-10409.89043 -583.18987)"/><path class="cls-1" d="M10590.59453,775.40862c0,.85449-.2959,1.02539-1.0166,1.11133-1.22754.12793-4.02246.1709-4.99609.1709.085-1.71.12695-4.23145.12695-7.82129V754.5512c0-2.09375,0-3.12012-.085-4.31641a66.04884,66.04884,0,0,1,7.707-.72656c7.24023,0,10.459,2.47852,10.459,7.77832,0,3.93262-3.30273,5.85547-4.9541,6.668.93067.85449,2.20117,3.12012,3.55664,5.55566a39.00354,39.00354,0,0,0,4.27637,6.625v.1709a11.30615,11.30615,0,0,1-3.85352.46973,4.37591,4.37591,0,0,1-4.02246-1.79492,44.91783,44.91783,0,0,1-3.68359-6.7959c-1.14355-2.30762-1.94824-2.47852-2.92188-2.47852h-.59277Zm0-13.16406a10.73435,10.73435,0,0,0,3.81055-.29883,4.33687,4.33687,0,0,0,2.24414-4.14648c0-3.24805-1.94727-4.78614-4.48828-4.78614a9.25859,9.25859,0,0,0-1.56641.12793Z" transform="translate(-10409.89043 -583.18987)"/><path class="cls-1" d="M10634.3748,762.84319c0,7.73535-4.82714,14.23242-13.80371,14.23242-9.78125,0-13.67675-7.13769-13.67675-13.84765,0-8.03516,5.123-14.14746,13.8457-14.14746C10629.54766,749.0805,10634.3748,755.3637,10634.3748,762.84319Zm-21.00195-.1709c0,6.92383,3.42969,10.64161,7.62207,10.64161,4.44531,0,6.98633-3.80372,6.98633-10.04395,0-5.76953-2.71-10.42773-7.707-10.42773C10616.59063,752.84222,10613.37285,755.83343,10613.37285,762.67229Z" transform="translate(-10409.89043 -583.18987)"/><path class="cls-1" d="M10647.49688,755.14983c0-2.90625-.042-3.71875-.085-4.78711a54.09285,54.09285,0,0,1,9.18848-.85449c12.57617,0,14.86328,7.69336,14.86328,13.20606,0,9.14648-6.56347,14.14746-15.24414,14.14746a47.70041,47.70041,0,0,1-8.72265-.76953Zm6.05566,17.65137a13.43776,13.43776,0,0,0,2.87891.2998c3.09082,0,8.5957-1.45312,8.5957-10.34375,0-6.36816-3.55664-9.48828-9.10352-9.48828a13.126,13.126,0,0,0-2.37109.1709Z" transform="translate(-10409.89043 -583.18987)"/><path class="cls-1" d="M10675.90605,755.7055c0-2.05176,0-3.50489-.12695-5.38575a27.84149,27.84149,0,0,1,5.50488-.59765h10.07715a6.23584,6.23584,0,0,1-1.39746,3.76074,17.55877,17.55877,0,0,1-4.2334.25684h-3.76855v6.88086h8.93359c-.38086,3.334-1.35449,4.01757-2.8789,4.01757h-6.05469v7.77832a19.2059,19.2059,0,0,0,3.38672.25684c1.65136,0,4.91211,0,7.15625-.1709l.085.085a5.58059,5.58059,0,0,1-2.41406,3.88965,48.13744,48.13744,0,0,1-6.05469.21387,46.85538,46.85538,0,0,1-7.53711-.42774l-.67774-.85449Z" transform="translate(-10409.89043 -583.18987)"/><path class="cls-1" d="M10705.1209,755.3637c0-2.86328-.042-4.61621-.12695-5.42773.84668-.12891,4.27636-.34278,5.251-.34278.80371,0,.93164.42774.93164,2.35156v19.14747c0,2.99121.084,4.40136.127,5.25683a37.395,37.395,0,0,1-5.166.3418c-.71973,0-1.0166-.12793-1.0166-.85449Z" transform="translate(-10409.89043 -583.18987)"/><path class="cls-1" d="M10738.1043,750.23479c.67773-.38476,4.06543-.6416,5.209-.6416.46582,0,.71973.25684.88867,1.36817l2.03223,15.64257c.59277,4.48829,1.05859,7.65039,1.39746,9.70215a35.11818,35.11818,0,0,1-4.86914.38477,1.13341,1.13341,0,0,1-1.27051-1.1543c-.21191-2.09375-.46582-4.57324-.88867-9.35937l-.88965-9.74512c-1.0166,3.50488-3.13379,10.04394-5.80078,18.16406a1.86636,1.86636,0,0,1-1.73633,1.4961,16.5901,16.5901,0,0,1-3.00586.34179c-.88965-2.99121-4.48925-14.40332-6.18261-19.917-.42286,4.83008-1.39746,14.19043-2.03223,19.44727-.085.46972-.29688.72656-.80469.72656-1.35449,0-3.68359,0-4.36133-.38477.71973-4.61621,2.24414-15.55761,3.85352-25.38769l-.085-.6836a22.84883,22.84883,0,0,1,5.251-.6416c.67675-.042.93066.25684,1.5664,2.09473l5.54688,15.81348c1.77832-4.915,4.40332-12.3086,6.18164-16.668Z" transform="translate(-10409.89043 -583.18987)"/><path class="cls-1" d="M10778.2,762.84319c0,7.73535-4.82715,14.23242-13.80371,14.23242-9.78125,0-13.67676-7.13769-13.67676-13.84765,0-8.03516,5.12305-14.14746,13.8457-14.14746C10773.37285,749.0805,10778.2,755.3637,10778.2,762.84319Zm-21.00195-.1709c0,6.92383,3.42968,10.64161,7.62207,10.64161,4.44531,0,6.98633-3.80372,6.98633-10.04395,0-5.76953-2.71-10.42773-7.707-10.42773C10760.41582,752.84222,10757.19805,755.83343,10757.19805,762.67229Zm13.5498-18.76269c.085.42676-.2539.64062-.67773.81152-2.83692.85449-6.09766,2.13672-7.876,2.77832-.25391-.34179-.5498-.8125-.80469-1.23926a.95151.95151,0,0,1,.29688-1.41113c1.77832-1.53808,5.41992-3.93164,6.90234-3.93164C10769.90117,741.21624,10770.53594,742.96917,10770.74785,743.9096Z" transform="translate(-10409.89043 -583.18987)"/><path class="cls-1" d="M10785.52324,749.59319c.67676,0,.97364.55567,1.65137,2.43653,1.65137,4.74414,4.31836,11.7539,6.01269,17.60937,2.07422-6.36914,4.61524-13.46387,6.94434-20.13086a16.44051,16.44051,0,0,1,4.40332.59863c.63477.21289.63477.81153.25391,1.96582-2.92188,7.86426-6.09766,15.42872-9.14649,22.82325-.33789.85449-.63476,1.32422-1.10058,1.53808a14.37,14.37,0,0,1-4.53028.5127c-3.04882-8.419-6.60547-18.1211-10.20507-26.37012A23.13971,23.13971,0,0,1,10785.52324,749.59319Z" transform="translate(-10409.89043 -583.18987)"/><path class="cls-1" d="M10808.25859,755.7055c0-2.05176,0-3.50489-.12695-5.38575a27.84149,27.84149,0,0,1,5.50488-.59765h10.07715a6.23584,6.23584,0,0,1-1.39746,3.76074,17.55877,17.55877,0,0,1-4.2334.25684h-3.76855v6.88086h8.93359c-.38086,3.334-1.35449,4.01757-2.8789,4.01757h-6.05469v7.77832a19.2059,19.2059,0,0,0,3.38672.25684c1.65136,0,4.91211,0,7.15625-.1709l.085.085a5.58059,5.58059,0,0,1-2.41406,3.88965,48.13744,48.13744,0,0,1-6.05469.21387,46.85538,46.85538,0,0,1-7.53711-.42774l-.67774-.85449Z" transform="translate(-10409.89043 -583.18987)"/><path class="cls-1" d="M10828.53887,755.3637c0-2.86328-.042-4.61621-.127-5.42773.84668-.12891,4.27637-.34278,5.251-.34278.80371,0,.93164.42774.93164,2.35156v19.14747c0,2.99121.084,4.40136.12695,5.25683a37.3949,37.3949,0,0,1-5.166.3418c-.71973,0-1.0166-.12793-1.0166-.85449Z" transform="translate(-10409.89043 -583.18987)"/><path class="cls-1" d="M10855.04473,751.21819c-.043,1.19629-.7627,3.20508-2.45606,3.07715a11.18712,11.18712,0,0,0-4.15039-1.02637c-2.20117,0-3.51367,1.02637-3.51367,2.52149,0,1.75293,1.35449,2.73535,5.37695,5.04394,3.51465,2.00879,5.84375,3.63282,5.84375,7.82129,0,5.51367-4.78515,8.41992-9.82324,8.41992a11.29569,11.29569,0,0,1-6.35156-1.667c-.84766-.55566-1.14356-1.02539-1.14356-1.624a5.90518,5.90518,0,0,1,1.18555-3.07715,13.10413,13.10413,0,0,0,6.18164,2.00879c2.28711,0,3.98047-.89746,3.98047-2.86426,0-1.53808-.71973-2.52148-5.03906-4.915-4.9541-2.64941-5.88477-5.42773-5.88477-8.07715,0-3.03515,2.11621-7.77929,9.35742-7.77929C10851.06426,749.0805,10853.94316,750.10686,10855.04473,751.21819Z" transform="translate(-10409.89043 -583.18987)"/><path class="cls-2" d="M10595.4168,789.9262c-.124.9082-.65235,1.9043-1.86231,1.55273a10.20356,10.20356,0,0,0-3.13476-.55664c-4.71778,0-7.91407,3.54493-7.91407,8.37891,0,3.22266,1.73829,6.26953,5.55567,6.26953a6.57692,6.57692,0,0,0,1.95508-.26367,45.4604,45.4604,0,0,0,.83789-6.47461c.71386-.08789,2.17285-.26367,3.041-.26367.52832,0,.6836.20508.6211.73242-.124.84961-.68262,4.16016-1.11719,7.44141a20.15226,20.15226,0,0,1-6.11426,1.02539c-5.55566,0-8.59668-3.252-8.56641-8.4375,0-4.01368,2.51465-10.752,11.51465-10.752A8.98774,8.98774,0,0,1,10595.4168,789.9262Z" transform="translate(-10409.89043 -583.18987)"/><path class="cls-2" d="M10611.41191,799.21722c0,3.97558-2.35839,8.45214-7.89257,8.45214-4.09082,0-6.208-2.54492-6.208-6.3164-.02442-4.31739,2.791-8.56543,7.94043-8.56543C10609.41484,792.78753,10611.41191,795.60491,10611.41191,799.21722Zm-11.1416,2.2041c0,2.31738.93848,4.54394,3.417,4.54394,3.20118,0,4.74122-3.6582,4.74122-6.90722,0-2.08985-.69825-4.56641-3.44141-4.56641C10602.41191,794.49163,10600.27031,797.3764,10600.27031,801.42132Z" transform="translate(-10409.89043 -583.18987)"/><path class="cls-2" d="M10614.63457,796.19573c.14453-.97754.26465-1.9541.36133-2.9541.48047-.06836,1.87695-.18164,2.38183-.18164.38477,0,.4336.2041.26465,1.34082l-1.41992,10.11035c-.21582,1.56738-.28808,2.31738-.33691,2.81738a20.63679,20.63679,0,0,1-2.38184.13575c-.3125,0-.43359-.11329-.38476-.40821Z" transform="translate(-10409.89043 -583.18987)"/><path class="cls-2" d="M10622.83965,803.28362c-.79395,1.5-1.73242,3.1582-2.11817,3.83985a.70488.70488,0,0,1-.67285.34082,10.03088,10.03088,0,0,1-1.998-.27247v-.04492c1.66113-2.88574,6.52148-11.26953,7.62793-13.40527l-.09571-.38672a22.43127,22.43127,0,0,1,2.26172-.29492c.2168,0,.28906.13672.36133.34082.72168,2.68066,1.85254,6.92969,2.42969,8.95215.65039,2.3623,1.083,3.72558,1.39648,4.8164v.04493a13.53767,13.53767,0,0,1-2.335.25c-.33691,0-.457-.11329-.625-.72657-.31348-1.18164-.57812-2.04492-.98633-3.4541Zm.69726-11.791a16.41738,16.41738,0,0,0,2.83985-2.25,1.12275,1.12275,0,0,1,.457-.29493,6.55555,6.55555,0,0,1,.96289-.06836,16.48341,16.48341,0,0,0,2.55078,2.61329,2.20337,2.20337,0,0,1-1.15527.749,1.22821,1.22821,0,0,1-.60156-.13574,14.00557,14.00557,0,0,1-1.49219-1.27246,13.08214,13.08214,0,0,1-1.78028,1.25,1.23178,1.23178,0,0,1-.57812.1582A1.43682,1.43682,0,0,1,10623.53691,791.49261Zm4.21192,10.042c-.7461-2.999-1.13184-4.4082-1.32422-5.13477-.72168,1.34082-1.56348,2.93067-2.71875,5.13477Z" transform="translate(-10409.89043 -583.18987)"/><path class="cls-2" d="M10645.33672,793.76409c.07226-.47656.24023-.56738.626-.61328a18.22061,18.22061,0,0,1,1.82812-.09082c-.64941,3.9082-1.56348,9.792-2.09277,14.17773a5.00652,5.00652,0,0,1-1.63672.36328.60026.60026,0,0,1-.57715-.36328c-.84277-1.4541-1.99707-3.52148-3.63379-6.5664a46.628,46.628,0,0,1-2.1416-4.43067c-.12012,1.72657-.28906,3.06739-.457,4.36231l-.86621,6.20312c-.07227.47657-.2168.56739-.57813.61328a16.70263,16.70263,0,0,1-1.94922.04493c.7461-4.18067,1.37207-8.47461,2.02149-12.7002a1.22369,1.22369,0,0,0-.07227-.79492l-.28808-.65918v-.06836c.50488-.06836,2.26171-.18164,2.59863-.18164a.786.786,0,0,1,.626.38574c.55273.84082,2.26171,4.02149,3.63281,6.498a34.06911,34.06911,0,0,1,1.75683,3.47656c.07227-1.29492.19239-2.18066.33692-3.33984Z" transform="translate(-10409.89043 -583.18987)"/><path class="cls-2" d="M10650.79668,796.19573c.14453-.97754.26465-1.9541.36133-2.9541.48047-.06836,1.877-.18164,2.38183-.18164.38477,0,.4336.2041.26465,1.34082l-1.41992,10.11035c-.21582,1.56738-.28809,2.31738-.33691,2.81738a20.63679,20.63679,0,0,1-2.38184.13575c-.3125,0-.43359-.11329-.38477-.40821Z" transform="translate(-10409.89043 -583.18987)"/><path class="cls-2" d="M10659.00176,803.28362c-.79395,1.5-1.73242,3.1582-2.11817,3.83985a.70488.70488,0,0,1-.67285.34082,10.03078,10.03078,0,0,1-1.998-.27247v-.04492c1.66113-2.88574,6.52148-11.26953,7.62793-13.40527l-.09571-.38672a22.43127,22.43127,0,0,1,2.26172-.29492c.2168,0,.28906.13672.36133.34082.72168,2.68066,1.85254,6.92969,2.42969,8.95215.65039,2.3623,1.083,3.72558,1.39648,4.8164v.04493a13.53767,13.53767,0,0,1-2.335.25c-.33691,0-.457-.11329-.625-.72657-.31348-1.18164-.57813-2.04492-.98633-3.4541Zm4.90918-1.749c-.7461-2.999-1.13184-4.4082-1.32422-5.13477-.72168,1.34082-1.56348,2.93067-2.71875,5.13477Z" transform="translate(-10409.89043 -583.18987)"/></svg>